<mxfile host="app.diagrams.net" modified="2023-11-05T10:27:04.481Z" agent="Mozilla/5.0 (Windows NT 10.0; Win64; x64) AppleWebKit/537.36 (KHTML, like Gecko) Chrome/118.0.0.0 Safari/537.36" etag="eKpcI-CVm8FWVc3oReT3" version="22.0.8" type="device">
  <diagram id="W_TCu5BtP4deTzKrztbN" name="Page-1">
    <mxGraphModel dx="1050" dy="577" grid="1" gridSize="10" guides="1" tooltips="1" connect="1" arrows="1" fold="1" page="1" pageScale="1" pageWidth="850" pageHeight="1100" math="0" shadow="0">
      <root>
        <mxCell id="0" />
        <mxCell id="1" parent="0" />
        <mxCell id="A8BgsI0UOJrtvhFvhspc-1" value="Borrower" style="shape=umlActor;verticalLabelPosition=bottom;verticalAlign=top;html=1;outlineConnect=0;" parent="1" vertex="1">
          <mxGeometry x="60" y="290" width="20" height="60" as="geometry" />
        </mxCell>
        <mxCell id="nd8Z7lJuWO7qZR5yDIBj-10" value="Give address + rating" style="edgeStyle=orthogonalEdgeStyle;rounded=0;orthogonalLoop=1;jettySize=auto;html=1;entryX=1;entryY=1;entryDx=0;entryDy=0;" edge="1" parent="1" source="A8BgsI0UOJrtvhFvhspc-2" target="A8BgsI0UOJrtvhFvhspc-6">
          <mxGeometry relative="1" as="geometry">
            <Array as="points">
              <mxPoint x="350" y="490" />
              <mxPoint x="350" y="360" />
              <mxPoint x="352" y="360" />
            </Array>
          </mxGeometry>
        </mxCell>
        <mxCell id="A8BgsI0UOJrtvhFvhspc-2" value="Backend" style="rounded=1;whiteSpace=wrap;html=1;" parent="1" vertex="1">
          <mxGeometry x="140" y="460" width="120" height="60" as="geometry" />
        </mxCell>
        <mxCell id="nd8Z7lJuWO7qZR5yDIBj-4" value="Rating level" style="edgeStyle=orthogonalEdgeStyle;rounded=0;orthogonalLoop=1;jettySize=auto;html=1;" edge="1" parent="1" source="A8BgsI0UOJrtvhFvhspc-6" target="nd8Z7lJuWO7qZR5yDIBj-1">
          <mxGeometry relative="1" as="geometry" />
        </mxCell>
        <mxCell id="A8BgsI0UOJrtvhFvhspc-6" value="ZK Circuit" style="ellipse;whiteSpace=wrap;html=1;" parent="1" vertex="1">
          <mxGeometry x="250" y="270" width="120" height="80" as="geometry" />
        </mxCell>
        <mxCell id="nd8Z7lJuWO7qZR5yDIBj-8" value="Request address" style="edgeStyle=orthogonalEdgeStyle;rounded=0;orthogonalLoop=1;jettySize=auto;html=1;entryX=0.5;entryY=0;entryDx=0;entryDy=0;" edge="1" parent="1" source="nd8Z7lJuWO7qZR5yDIBj-1" target="A8BgsI0UOJrtvhFvhspc-6">
          <mxGeometry relative="1" as="geometry">
            <Array as="points">
              <mxPoint x="620" y="250" />
              <mxPoint x="310" y="250" />
            </Array>
          </mxGeometry>
        </mxCell>
        <mxCell id="nd8Z7lJuWO7qZR5yDIBj-1" value="Lender" style="shape=umlActor;verticalLabelPosition=bottom;verticalAlign=top;html=1;outlineConnect=0;" vertex="1" parent="1">
          <mxGeometry x="610" y="280" width="20" height="60" as="geometry" />
        </mxCell>
        <mxCell id="nd8Z7lJuWO7qZR5yDIBj-2" value="Give address" style="edgeStyle=orthogonalEdgeStyle;rounded=0;orthogonalLoop=1;jettySize=auto;html=1;entryX=-0.003;entryY=0.643;entryDx=0;entryDy=0;entryPerimeter=0;" edge="1" parent="1" source="A8BgsI0UOJrtvhFvhspc-1" target="A8BgsI0UOJrtvhFvhspc-2">
          <mxGeometry relative="1" as="geometry">
            <Array as="points">
              <mxPoint x="110" y="330" />
              <mxPoint x="110" y="499" />
            </Array>
          </mxGeometry>
        </mxCell>
        <mxCell id="nd8Z7lJuWO7qZR5yDIBj-6" value="Proof" style="edgeStyle=orthogonalEdgeStyle;rounded=0;orthogonalLoop=1;jettySize=auto;html=1;entryX=1;entryY=0.3333333333333333;entryDx=0;entryDy=0;entryPerimeter=0;" edge="1" parent="1" source="A8BgsI0UOJrtvhFvhspc-6" target="A8BgsI0UOJrtvhFvhspc-1">
          <mxGeometry relative="1" as="geometry" />
        </mxCell>
      </root>
    </mxGraphModel>
  </diagram>
</mxfile>
